<svg width="398" height="61" viewBox="0 0 398 61" fill="none" xmlns="http://www.w3.org/2000/svg">
<path fill-rule="evenodd" clip-rule="evenodd" d="M368 0C384.569 0 398 13.4315 398 30V31C398 47.5685 384.569 61 368 61H39.1685C33.7535 61 28.6736 59.5653 24.2881 57.0554C15.06 59.4021 4.94077 58.757 0.237762 54.969C-0.0526428 54.7351 -0.0763245 54.4001 0.163971 54.0846C0.417725 53.7623 0.898254 53.4998 1.44754 53.3981C7.89139 52.1556 11.8507 49.9632 14.2849 47.7626C11.0545 42.9767 9.16852 37.2086 9.16852 31V30C9.16852 13.4315 22.6 0 39.1685 0H368Z" fill="white"/>
</svg>
